<svg xmlns="http://www.w3.org/2000/svg" viewBox="0 0 512 512" role="img" aria-label="Unshortener icon">
  <defs>
    <linearGradient id="bg" x1="0" y1="0" x2="1" y2="1">
      <stop offset="0%" stop-color="#0f172a"/>
      <stop offset="100%" stop-color="#0f4c81"/>
    </linearGradient>
    <linearGradient id="fg" x1="0" y1="0" x2="1" y2="1">
      <stop offset="0%" stop-color="#dbeafe"/>
      <stop offset="100%" stop-color="#e0f2fe"/>
    </linearGradient>
  </defs>
  <rect width="512" height="512" rx="112" fill="url(#bg)"/>
  <circle cx="256" cy="256" r="154" fill="rgba(255,255,255,0.08)"/>
  <g fill="none" stroke="url(#fg)" stroke-width="36" stroke-linecap="round" stroke-linejoin="round">
    <path d="M184 286c26 26 68 26 94 0l42-42c26-26 26-68 0-94-26-26-68-26-94 0l-24 24"/>
    <path d="M328 226c-26-26-68-26-94 0l-42 42c-26 26-26 68 0 94 26 26 68 26 94 0l24-24"/>
  </g>
</svg>
